<?xml version="1.0" encoding="UTF-8" standalone="no"?>
<!-- Created with Inkscape (http://www.inkscape.org/) -->

<svg
   xmlns:dc="http://purl.org/dc/elements/1.1/"
   xmlns:cc="http://creativecommons.org/ns#"
   xmlns:rdf="http://www.w3.org/1999/02/22-rdf-syntax-ns#"
   xmlns:svg="http://www.w3.org/2000/svg"
   xmlns="http://www.w3.org/2000/svg"
   xmlns:sodipodi="http://sodipodi.sourceforge.net/DTD/sodipodi-0.dtd"
   xmlns:inkscape="http://www.inkscape.org/namespaces/inkscape"
   width="210mm"
   height="297mm"
   viewBox="0 0 210 297"
   version="1.1"
   id="svg8"
   inkscape:version="0.92.3 (2405546, 2018-03-11)"
   sodipodi:docname="Logo_Iniciales.svg">
  <defs
     id="defs2" />
  <sodipodi:namedview
     id="base"
     pagecolor="#ffffff"
     bordercolor="#666666"
     borderopacity="1.0"
     inkscape:pageopacity="0.0"
     inkscape:pageshadow="2"
     inkscape:zoom="0.49497475"
     inkscape:cx="595.27531"
     inkscape:cy="628.27355"
     inkscape:document-units="mm"
     inkscape:current-layer="layer1"
     showgrid="false"
     inkscape:window-width="1360"
     inkscape:window-height="705"
     inkscape:window-x="1352"
     inkscape:window-y="-8"
     inkscape:window-maximized="1" />
  <metadata
     id="metadata5">
    <rdf:RDF>
      <cc:Work
         rdf:about="">
        <dc:format>image/svg+xml</dc:format>
        <dc:type
           rdf:resource="http://purl.org/dc/dcmitype/StillImage" />
        <dc:title></dc:title>
      </cc:Work>
    </rdf:RDF>
  </metadata>
  <g
     inkscape:label="Capa 1"
     inkscape:groupmode="layer"
     id="layer1"
     style="display:inline">
    <flowRoot
       xml:space="preserve"
       id="flowRoot3713"
       style="font-style:italic;font-variant:normal;font-weight:bold;font-stretch:normal;font-size:85.33333588px;line-height:1.25;font-family:sans-serif;-inkscape-font-specification:'sans-serif Bold Italic';letter-spacing:0px;word-spacing:0px;fill:#000000;fill-opacity:1;stroke:none"
       transform="matrix(1.5959695,0,0,1.9218399,-69.36919,-106.18646)"><flowRegion
         id="flowRegion3715"
         style="font-style:italic;font-variant:normal;font-weight:bold;font-stretch:normal;font-size:85.33333588px;font-family:sans-serif;-inkscape-font-specification:'sans-serif Bold Italic'"><rect
           id="rect3717"
           width="678.82251"
           height="480.83261"
           x="54.548237"
           y="76.001648"
           style="font-style:italic;font-variant:normal;font-weight:bold;font-stretch:normal;font-size:85.33333588px;font-family:sans-serif;-inkscape-font-specification:'sans-serif Bold Italic'" /></flowRegion><flowPara
         id="flowPara3719">JP</flowPara></flowRoot>    <path
       style="fill:#000080;stroke-width:0.53453904"
       d="m 33.486864,193.42525 c -5.183856,-0.40823 -12.106823,-1.43258 -12.870116,-1.90432 -0.272592,-0.16847 1.64211,-10.95515 3.814563,-21.48975 0.698948,-3.38931 0.953946,-3.43196 6.392981,-1.06908 3.807395,1.65405 4.318937,1.73725 10.680658,1.73725 5.291297,0 7.231391,-0.21199 9.323084,-1.01871 5.602417,-2.16075 9.522708,-7.64476 12.293644,-17.19731 0.760871,-2.62304 3.545343,-16.07466 6.187715,-29.89249 2.642376,-13.81783 4.94328,-25.784827 5.113118,-26.593319 l 0.308803,-1.46998 H 63.401208 52.071102 l 0.290475,-1.469983 c 0.159761,-0.808492 1.074761,-5.619342 2.033331,-10.690783 l 1.742858,-9.220798 h 23.990149 c 22.598095,0 23.973895,0.05428 23.710085,0.935445 -0.15404,0.514493 -3.78539,19.216677 -8.069676,41.560408 -4.284284,22.34373 -8.525001,43.0304 -9.423817,45.97036 -7.481462,24.47141 -23.518519,34.12352 -52.857643,31.81306 z"
       id="path3729"
       inkscape:connector-curvature="0" />
    <path
       style="fill:#0000ff;stroke-width:0.53453904"
       d="m 106.1842,189.27459 c 2e-5,-0.2205 5.05142,-26.72901 11.22533,-58.90781 6.1739,-32.178798 11.22528,-58.698617 11.22528,-58.932932 0,-0.622533 39.50888,-0.512974 45.16855,0.125254 17.58235,1.982721 26.82901,9.548227 29.4771,24.117813 1.0245,5.636715 0.65305,14.550915 -0.85421,20.499455 -4.11377,16.23542 -17.01376,28.30485 -34.83606,32.59317 -5.55572,1.33679 -16.5117,2.40434 -24.79009,2.41554 l -4.27631,0.006 -1.22631,6.54701 c -0.67446,3.60087 -2.32842,12.25991 -3.67546,19.24232 l -2.44917,12.6953 h -12.49434 c -6.87188,0 -12.49432,-0.1804 -12.49431,-0.4009 z m 55.79997,-61.55124 c 6.71793,-1.86283 11.30511,-5.95439 13.75783,-12.27137 1.69531,-4.36628 1.73111,-12.25655 0.0698,-15.39371 -2.86448,-5.409315 -7.36719,-7.134348 -18.62217,-7.134348 h -7.45639 l -3.35489,17.773418 c -1.84519,9.77539 -3.34502,17.99032 -3.33296,18.25541 0.0377,0.82771 15.02986,-0.1455 18.93874,-1.2294 z"
       id="path3731"
       inkscape:connector-curvature="0" />
    <path
       sodipodi:type="star"
       style="fill:#ffcc00;stroke-width:0.26458332"
       id="path3753"
       sodipodi:sides="5"
       sodipodi:cx="29.934187"
       sodipodi:cy="45.232103"
       sodipodi:r1="30.39361"
       sodipodi:r2="15.196805"
       sodipodi:arg1="0.41643862"
       sodipodi:arg2="1.0447571"
       inkscape:flatsided="false"
       inkscape:rounded="0"
       inkscape:randomized="0"
       d="M 57.730217,57.5265 37.564685,58.374338 26.830965,75.466875 19.793131,56.550311 0.22026009,51.623821 16.036171,39.084903 14.673192,18.947628 31.485797,30.114714 50.2163,22.595684 44.79115,42.036241 Z"
       inkscape:transform-center-x="0.95894843"
       inkscape:transform-center-y="1.9751497" />
    <path
       sodipodi:type="star"
       style="fill:#ffcc00;stroke-width:0.26458332"
       id="path3755"
       sodipodi:sides="5"
       sodipodi:cx="175.32879"
       sodipodi:cy="32.403165"
       sodipodi:r1="38.252235"
       sodipodi:r2="19.126118"
       sodipodi:arg1="2.5652174"
       sodipodi:arg2="3.193536"
       inkscape:flatsided="false"
       inkscape:rounded="0"
       inkscape:randomized="0"
       d="M 143.25645,53.250188 156.22848,31.410136 145.5912,8.3426388 l 24.7797,5.5881772 18.65139,-17.2448982 2.34268,25.2937352 22.16447,12.409564 -23.33185,10.044211 -4.95299,24.91443 -16.76255,-19.086072 z"
       inkscape:transform-center-x="-3.0641477"
       inkscape:transform-center-y="0.61372428" />
    <path
       sodipodi:type="star"
       style="fill:#ffcc00;stroke-width:0.26458332"
       id="path3757"
       sodipodi:sides="5"
       sodipodi:cx="31.557645"
       sodipodi:cy="228.76945"
       sodipodi:r1="35.396816"
       sodipodi:r2="17.698408"
       sodipodi:arg1="-0.25962963"
       sodipodi:arg2="0.3686889"
       inkscape:flatsided="false"
       inkscape:rounded="0"
       inkscape:randomized="0"
       d="m 65.768142,219.68229 -17.701409,15.46554 2.704943,23.34965 -20.17864,-12.05592 -21.3709627,9.78799 5.2303247,-22.91651 -15.9129257,-17.30034 23.4111587,-2.10726 11.536234,-20.48019 9.238567,21.61416 z"
       inkscape:transform-center-x="-0.59616146"
       inkscape:transform-center-y="-2.8080908" />
    <path
       sodipodi:type="star"
       style="fill:#ffcc00;stroke-width:0.26458332"
       id="path3759"
       sodipodi:sides="5"
       sodipodi:cx="134.06823"
       sodipodi:cy="202.79424"
       sodipodi:r1="51.795151"
       sodipodi:r2="25.897575"
       sodipodi:arg1="1.0286069"
       sodipodi:arg2="1.6569254"
       inkscape:flatsided="false"
       inkscape:rounded="0"
       inkscape:randomized="0"
       d="m 160.79519,247.16098 -28.95473,-18.56517 -31.70842,13.32734 8.70902,-33.27453 -22.473497,-26.03812 34.337197,-1.99963 17.81903,-29.41979 12.51254,32.0387 33.48627,7.85569 -26.60403,21.80063 z"
       inkscape:transform-center-x="-1.376841"
       inkscape:transform-center-y="-3.61821" />
    <path
       sodipodi:type="star"
       style="display:inline;fill:#ffcc00;stroke-width:0.26458332"
       id="path3753-6"
       sodipodi:sides="5"
       sodipodi:cx="184.30584"
       sodipodi:cy="259.21073"
       sodipodi:r1="30.393612"
       sodipodi:r2="15.196805"
       sodipodi:arg1="0.41643862"
       sodipodi:arg2="1.0447571"
       inkscape:flatsided="false"
       inkscape:rounded="0"
       inkscape:randomized="0"
       d="m 212.10188,271.50512 -20.16553,0.84784 -10.73372,17.09254 -7.03784,-18.91657 -19.57287,-4.92649 15.81591,-12.53891 -1.36298,-20.13728 16.81261,11.16709 18.7305,-7.51904 -5.42515,19.44056 z"
       inkscape:transform-center-x="0.95894843"
       inkscape:transform-center-y="1.9751497" />
    <path
       style="fill:#000000;stroke-width:2.02030516"
       d="m 57.874155,716.18387 c -7.864718,-1.64956 -10.994749,-3.21611 -10.711524,-5.36103 0.611329,-4.62974 14.843143,-79.17573 16.103098,-84.34774 1.429028,-5.86604 5.526575,-5.74914 19.804,0.56502 9.089104,4.01963 11.275941,5.84108 10.243387,8.53187 -0.722053,1.88164 -4.658617,21.40112 -8.747921,43.37662 -8.369962,44.97931 -5.938874,41.58783 -26.69104,37.23526 z"
       id="path3776"
       inkscape:connector-curvature="0"
       transform="scale(0.26458333)" />
    <path
       style="fill:#000000;stroke-width:2.02030516"
       d="m 57.874155,716.18387 c -7.842734,-1.64495 -11.001127,-3.22211 -10.735895,-5.36103 0.452338,-3.64783 14.407414,-77.88749 15.855126,-84.34774 0.608623,-2.71591 2.528448,-4.54569 4.769399,-4.54569 6.431463,0 26.935174,10.03027 25.93425,12.68685 -0.510899,1.35599 -4.434228,20.87547 -8.718511,43.37662 -8.770288,46.06175 -6.283618,42.55795 -27.104369,38.19099 z"
       id="path3778"
       inkscape:connector-curvature="0"
       transform="scale(0.26458333)" />
    <path
       style="fill:#000000;stroke-width:2.02030516"
       d="m 406.63185,515.58934 c 18.09812,-94.29853 36.25739,-188.95277 40.35394,-210.34275 l 7.44828,-38.89087 80.01707,0.46233 80.01707,0.46233 -64.48805,1.0529 -64.48805,1.05289 -39.35859,207.08128 c -21.64722,113.8947 -39.44817,207.22845 -39.55766,207.40831 -0.1095,0.17981 -7.54546,0.96569 -16.52438,1.74626 l -16.3253,1.4192 z"
       id="path3780"
       inkscape:connector-curvature="0"
       transform="scale(0.26458333)" />
    <path
       style="fill:#008000;stroke-width:2.02030516"
       d="m 56.864002,716.12389 c -6.847968,-1.62176 -9.972662,-3.34875 -9.701435,-5.3619 0.841924,-6.24907 15.06639,-81.93617 16.030538,-85.29704 1.386198,-4.83209 6.268368,-4.44305 19.900654,1.58579 10.080011,4.45786 11.422225,5.70109 10.360524,9.59645 -0.670842,2.46132 -4.580042,21.97601 -8.687108,43.36599 -8.472777,44.12703 -6.242332,41.24051 -27.903173,36.11071 z"
       id="path3782"
       inkscape:connector-curvature="0"
       transform="scale(0.26458333)" />
    <path
       style="fill:#008000;stroke-width:2.02030516"
       d="m 122.55232,640.36664 -9.06296,-3.78684 20.17464,-0.87233 c 32.43949,-1.40262 49.13549,-11.58045 62.63046,-38.17932 10.4948,-20.68546 15.886,-42.52491 34.36649,-139.21663 9.45352,-49.46172 17.70009,-92.43052 18.32572,-95.48624 1.12379,-5.48878 1.32769,-5.55583 16.89451,-5.55583 h 15.757 l -1.69944,8.58629 c -0.93469,4.72247 -8.57292,44.04265 -16.97386,87.3782 -27.00239,139.28971 -30.30406,150.63724 -50.06789,172.07847 -14.20592,15.4116 -20.38753,17.53866 -52.99743,18.23613 -23.99928,0.51329 -29.65728,0.0312 -37.34724,-3.1819 z"
       id="path3784"
       inkscape:connector-curvature="0"
       transform="scale(0.26458333)" />
    <path
       style="fill:#2b0000;stroke-width:2.02030516"
       d="m 167.58033,341.70161 c 0.61324,-3.10495 4.0792,-21.32799 7.70215,-40.49563 l 6.58718,-34.85026 h 90.75143 c 81.92341,0 90.63214,0.31086 89.52513,3.19569 -0.67447,1.75763 -1.2263,4.03047 -1.2263,5.05076 0,1.09307 -30.64657,1.85507 -74.60805,1.85507 h -74.60806 l -2.14782,10.6066 c -1.18131,5.83363 -4.21356,21.51625 -6.73835,34.85027 l -4.59051,24.24366 -15.88089,0.5946 -15.88088,0.59461 z"
       id="path3786"
       inkscape:connector-curvature="0"
       transform="scale(0.26458333)" />
    <path
       style="fill:#2b0000;stroke-width:2.02030516"
       d="m 59.356678,716.04125 c -5.296035,-1.42455 -10.130104,-3.09103 -10.742376,-3.70331 -1.544064,-1.54406 14.622731,-86.478 16.892798,-88.74807 2.394063,-2.39406 24.598786,5.84754 26.067671,9.6754 1.319271,3.43797 -12.468406,75.9002 -15.530501,81.62178 -2.465459,4.60675 -3.568463,4.68304 -16.687592,1.1542 z"
       id="path3788"
       inkscape:connector-curvature="0"
       transform="scale(0.26458333)" />
    <path
       style="fill:#000080;stroke-width:2.02030516"
       d="m 134.40662,641.93272 c -20.5976,-2.23501 -20.35059,-5.18471 0.52561,-6.27667 32.58176,-1.70423 49.60954,-12.98737 63.15243,-41.84678 9.87541,-21.04416 14.59634,-40.67453 34.77313,-144.59242 9.49028,-48.87844 18.3218,-89.54841 19.62559,-90.37771 4.01768,-2.55553 27.62433,-1.86249 27.62433,0.81098 0,4.20734 -28.32751,149.03323 -35.69092,182.47166 -3.91432,17.77562 -9.32311,39.30302 -12.01952,47.83865 -6.89818,21.83661 -23.10934,42.7061 -38.15252,49.11578 -5.5957,2.38424 -46.28817,4.32678 -59.83813,2.85651 z"
       id="path3790"
       inkscape:connector-curvature="0"
       transform="scale(0.26458333)" />
    <path
       style="fill:#000080;stroke-width:2.02030516"
       d="m 373.92538,684.34841 c 1.02568,-2.94267 79.92857,-414.21599 79.92857,-416.61959 0,-0.75521 36.13821,-1.15905 80.30713,-0.89744 l 80.30713,0.47567 -64.0175,0.56269 c -58.74768,0.51637 -64.10193,0.85141 -65.04319,4.07002 -0.56413,1.92903 -18.46261,95.3302 -39.77441,207.55814 -21.3118,112.22795 -38.9017,204.24111 -39.08867,204.47369 -0.18698,0.23257 -7.82391,1.047 -16.97097,1.80983 -13.77225,1.14856 -16.46206,0.90225 -15.64809,-1.43301 z"
       id="path3792"
       inkscape:connector-curvature="0"
       transform="scale(0.26458333)" />
    <path
       style="fill:#550000;stroke-width:2.02030516"
       d="m 545.82082,486.63852 c -0.82803,-1.33977 2.57377,-2.08985 9.47795,-2.08985 24.55758,0 53.84714,-13.51665 66.17924,-30.54062 10.60549,-14.64045 14.83035,-28.81256 14.9865,-50.27159 0.11561,-15.8876 -0.60178,-20.5846 -4.16572,-27.27412 -4.86249,-9.12692 -10.97678,-15.35897 -19.85089,-20.23322 -6.03154,-3.31293 -5.99477,-3.32449 7.587,-2.38629 26.33774,1.81935 43.91272,15.72848 47.14984,37.31515 2.08602,13.91054 -0.38053,37.42017 -5.02838,47.9274 -8.18881,18.51217 -22.87706,32.51703 -41.91182,39.96182 -13.73249,5.37099 -72.11548,11.32613 -74.42372,7.59132 z"
       id="path3794"
       inkscape:connector-curvature="0"
       transform="scale(0.26458333)" />
    <path
       style="fill:#550000;stroke-width:2.02030516"
       d="m 56.095577,714.55523 -6.82934,-1.9641 1.278135,-10.87493 c 1.338328,-11.38709 10.204444,-57.16233 13.595027,-70.19034 2.285198,-8.78066 4.868625,-9.31143 17.473341,-3.58994 7.395627,3.357 8.586296,4.75914 8.586296,10.1113 0,7.17934 -11.407477,66.59307 -14.1922,73.91745 -2.059374,5.41656 -7.585214,6.13551 -19.911259,2.59056 z"
       id="path3796"
       inkscape:connector-curvature="0"
       transform="scale(0.26458333)" />
    <path
       style="fill:#550000;stroke-width:2.02030516"
       d="m 128.58483,640.33566 c -6.66253,-1.4452 -6.77925,-1.60539 -2.0203,-2.77232 2.77792,-0.68117 10.21005,-1.67732 16.51585,-2.21367 27.10323,-2.30531 46.55147,-18.36057 58.49268,-48.28798 7.37079,-18.4729 11.4627,-35.79443 30.31069,-128.30886 10.1263,-49.70444 18.84518,-92.33295 19.37528,-94.73002 1.12595,-5.09143 10.84644,-7.66062 21.45445,-5.67054 l 6.7479,1.26591 -1.94275,10.44239 c -11.16347,60.00403 -33.40988,169.98158 -39.06331,193.11376 -3.91537,16.0205 -9.68664,34.20324 -12.82504,40.40611 -7.1117,14.05578 -20.0924,28.96561 -28.82607,33.11001 -7.56732,3.59093 -56.43253,6.20197 -68.21938,3.64521 z"
       id="path3798"
       inkscape:connector-curvature="0"
       transform="scale(0.26458333)" />
    <path
       style="fill:#550000;stroke-width:2.02030516"
       d="m 167.56269,341.61208 c 0.60342,-3.05571 4.0686,-21.23846 7.7004,-40.4061 l 6.60327,-34.85026 h 87.34124 c 48.03768,0 88.76265,0.54544 90.49993,1.2121 2.41992,0.92861 2.6782,2.10992 1.10431,5.05076 -1.96051,3.66324 -5.40963,3.83866 -75.47475,3.83866 h -73.42037 l -6.67466,35.35534 -6.67467,35.35534 h -16.05092 -16.05092 z"
       id="path3800"
       inkscape:connector-curvature="0"
       transform="scale(0.26458333)" />
    <path
       style="fill:#ff0000;stroke-width:2.02030516"
       d="m 553.85905,485.24331 c 23.43726,-1.87476 46.24454,-10.57671 60.48019,-23.07578 14.82638,-13.01773 25.10441,-44.62851 22.32883,-68.6738 -1.66146,-14.39357 -7.74611,-25.14392 -19.18098,-33.88893 l -9.0798,-6.94394 12.12183,1.49123 c 28.64228,3.52358 43.93954,16.98276 46.80552,41.18148 1.56348,13.20113 -2.51759,37.16171 -8.25951,48.49284 -5.9326,11.70741 -22.57313,27.57097 -34.41713,32.81013 -11.4271,5.05475 -44.32438,10.00056 -63.72788,9.5809 -8.33376,-0.18024 -11.51574,-0.6186 -7.07107,-0.97413 z"
       id="path3802"
       inkscape:connector-curvature="0"
       transform="scale(0.26458333)" />
    <path
       style="fill:#ff0000;stroke-width:2.02030516"
       d="m 105.86096,728.05367 c -27.15133,-3.879 -28.242726,-4.3169 -27.016003,-10.83974 15.70817,-83.52487 15.617808,-83.16269 20.748654,-83.16269 2.678119,0 10.524029,2.4947 17.435339,5.54376 11.69905,5.16127 14.4478,5.54061 39.84015,5.4979 24.15552,-0.0406 28.48161,-0.58518 37.83436,-4.76247 24.1259,-10.77548 38.35055,-35.93783 49.86942,-88.21533 5.70923,-25.91087 37.55514,-189.15249 37.55514,-192.50702 0,-1.57439 -12.73728,-2.4234 -42.05987,-2.80353 l -42.05988,-0.54526 7.25128,-39.39595 7.25127,-39.39595 88.227,0.0487 c 48.52484,0.0268 88.77127,0.59295 89.4365,1.25818 0.66525,0.66524 -9.32817,55.64614 -22.20756,122.1798 -38.29601,197.83338 -43.04932,218.33996 -57.07451,246.22919 -20.24361,40.25466 -52.76414,66.55551 -96.44445,77.99905 -21.13137,5.53608 -79.18915,7.07131 -108.58684,2.87139 z"
       id="path3804"
       inkscape:connector-curvature="0"
       transform="scale(0.26458333)" />
    <path
       style="fill:#000080;stroke-width:2.02030516"
       d="m 577.47056,481.5793 c 13.92131,-3.83423 27.69677,-10.99402 36.56167,-19.00292 20.85226,-18.83876 30.01025,-62.84468 17.98097,-86.40204 -2.35051,-4.60307 -8.06108,-11.61112 -12.69017,-15.57345 l -8.41652,-7.20423 7.84177,1.10879 c 22.7314,3.21411 36.99383,11.72226 43.44021,25.91392 6.6661,14.67538 4.25701,47.28642 -4.7841,64.76088 -4.41303,8.5294 -24.26659,26.82728 -33.12335,30.52787 -10.06525,4.20553 -35.36249,8.88044 -46.86112,8.6599 l -9.41873,-0.18066 z"
       id="path3806"
       inkscape:connector-curvature="0"
       transform="scale(0.26458333)" />
  </g>
</svg>
